<svg width="50" height="50" viewBox="0 0 50 50" fill="none" xmlns="http://www.w3.org/2000/svg">
<rect y="0.131836" width="50" height="49.7368" rx="24.8684" fill="white" fill-opacity="0.1"/>
<rect x="0.5" y="0.631836" width="49" height="48.7368" rx="24.3684" stroke="white" stroke-opacity="0.4"/>
<path opacity="0.4" d="M25.8398 30.8583V37.8687H35.1881V30.083L30.3121 33.2274C30.3121 33.222 27.5236 31.6337 25.8398 30.8583Z" fill="white"/>
<path d="M32.0602 19.5303C31.5662 19.5303 31.2422 19.9664 31.2422 20.6987C31.2422 21.3609 31.5768 21.7971 32.0548 21.7971C32.517 21.7971 32.8463 21.3663 32.8463 20.6771V20.6717C32.8463 19.9718 32.5223 19.5303 32.0602 19.5303Z" fill="white"/>
<path d="M14.8125 16.4231V37.8687H22.2805V25.2749C25.3984 26.4432 30.3115 29.1838 30.3115 29.1838L35.1875 26.034V12.1318C35.1875 12.1318 24.4104 12.471 14.8125 16.4231ZM21.2979 22.4427H20.5277V20.5259C20.5277 20.219 20.5171 20.0683 20.5011 19.9337C20.4586 19.6967 20.2727 19.5514 20.0019 19.5514C19.8319 19.5514 19.6619 19.5891 19.3963 19.7021C19.4388 19.8314 19.4654 19.8906 19.4654 20.2675V22.4427H18.7112V20.3321C18.7112 20.009 18.6846 19.8583 18.589 19.7237C18.4987 19.6106 18.3553 19.5568 18.1428 19.5568C17.9941 19.5568 17.8826 19.5729 17.6542 19.6483V22.4481H16.884V19.1906C17.3408 18.9429 17.7763 18.8299 18.18 18.8299C18.5571 18.8299 18.8493 18.9268 19.1148 19.126C19.4601 18.9106 19.7469 18.8299 20.0922 18.8299C20.4746 18.8299 20.8198 18.9645 21.027 19.196C21.2129 19.4168 21.2979 19.686 21.2979 20.2029V22.4427ZM24.8885 20.8759H22.7426C22.7798 21.4628 23.0825 21.7912 23.5606 21.7912C23.8155 21.7912 24.113 21.6943 24.3786 21.4843L24.7504 21.9904C24.4104 22.3297 23.9749 22.5073 23.5022 22.5073C22.5567 22.5073 21.9618 21.7912 21.9618 20.6821C21.9618 19.5568 22.5673 18.8299 23.5287 18.8299C24.4051 18.8299 24.9044 19.5029 24.9044 20.5636C24.9044 20.6336 24.8938 20.6982 24.8885 20.8759ZM26.8537 22.502C26.5403 22.502 26.3066 22.4266 26.1314 22.265C25.8658 22.012 25.8498 21.6243 25.8498 21.2959V19.5244H25.3028V18.8676H25.8498V17.9684L26.62 17.7799V18.8676H27.5389L27.3743 19.5244H26.62V21.0482C26.62 21.5059 26.6466 21.6189 26.7209 21.7105C26.7794 21.7858 26.8909 21.8343 27.0768 21.8343C27.1937 21.8343 27.2521 21.8289 27.438 21.7751L27.5708 22.3673C27.3158 22.4643 27.114 22.502 26.8537 22.502ZM30.1469 19.616C29.9238 19.5568 29.8229 19.546 29.6635 19.546C29.4829 19.546 29.2811 19.6106 29.1855 19.6591V22.4373H28.4047V19.1583C28.8774 18.9322 29.3023 18.8299 29.7166 18.8299C29.9238 18.8299 30.0672 18.846 30.3168 18.916L30.1469 19.616ZM32.0537 22.502C31.0711 22.502 30.4284 21.7643 30.4284 20.6551C30.4284 19.5621 31.0604 18.8299 32.0431 18.8299C33.0045 18.8299 33.6525 19.5729 33.6525 20.6444C33.6525 20.6498 33.6525 20.6498 33.6525 20.6498C33.6525 21.7535 33.0204 22.502 32.0537 22.502Z" fill="white"/>
<path d="M23.4874 19.5029C23.1421 19.5029 22.8606 19.7883 22.7969 20.2137H24.0929C24.061 19.7668 23.8379 19.5029 23.4874 19.5029Z" fill="white"/>
</svg>
