<svg width="24" height="25" viewBox="0 0 24 25" fill="none" xmlns="http://www.w3.org/2000/svg">
<g clip-path="url(#clip0_2532_378)">
<path d="M12 2.86328C14.717 2.86328 15.056 2.87328 16.122 2.92328C17.187 2.97328 17.912 3.14028 18.55 3.38828C19.21 3.64228 19.766 3.98628 20.322 4.54128C20.8305 5.04118 21.224 5.64587 21.475 6.31328C21.722 6.95028 21.89 7.67628 21.94 8.74128C21.987 9.80728 22 10.1463 22 12.8633C22 15.5803 21.99 15.9193 21.94 16.9853C21.89 18.0503 21.722 18.7753 21.475 19.4133C21.2247 20.0811 20.8311 20.6859 20.322 21.1853C19.822 21.6936 19.2173 22.087 18.55 22.3383C17.913 22.5853 17.187 22.7533 16.122 22.8033C15.056 22.8503 14.717 22.8633 12 22.8633C9.283 22.8633 8.944 22.8533 7.878 22.8033C6.813 22.7533 6.088 22.5853 5.45 22.3383C4.78233 22.0878 4.17753 21.6942 3.678 21.1853C3.16941 20.6855 2.77593 20.0807 2.525 19.4133C2.277 18.7763 2.11 18.0503 2.06 16.9853C2.013 15.9193 2 15.5803 2 12.8633C2 10.1463 2.01 9.80728 2.06 8.74128C2.11 7.67528 2.277 6.95128 2.525 6.31328C2.77524 5.64546 3.1688 5.0406 3.678 4.54128C4.17767 4.03251 4.78243 3.63901 5.45 3.38828C6.088 3.14028 6.812 2.97328 7.878 2.92328C8.944 2.87628 9.283 2.86328 12 2.86328ZM12 7.86328C10.6739 7.86328 9.40215 8.39007 8.46447 9.32775C7.52678 10.2654 7 11.5372 7 12.8633C7 14.1894 7.52678 15.4611 8.46447 16.3988C9.40215 17.3365 10.6739 17.8633 12 17.8633C13.3261 17.8633 14.5979 17.3365 15.5355 16.3988C16.4732 15.4611 17 14.1894 17 12.8633C17 11.5372 16.4732 10.2654 15.5355 9.32775C14.5979 8.39007 13.3261 7.86328 12 7.86328ZM18.5 7.61328C18.5 7.28176 18.3683 6.96382 18.1339 6.7294C17.8995 6.49498 17.5815 6.36328 17.25 6.36328C16.9185 6.36328 16.6005 6.49498 16.3661 6.7294C16.1317 6.96382 16 7.28176 16 7.61328C16 7.9448 16.1317 8.26274 16.3661 8.49716C16.6005 8.73159 16.9185 8.86328 17.25 8.86328C17.5815 8.86328 17.8995 8.73159 18.1339 8.49716C18.3683 8.26274 18.5 7.9448 18.5 7.61328ZM12 9.86328C12.7956 9.86328 13.5587 10.1794 14.1213 10.742C14.6839 11.3046 15 12.0676 15 12.8633C15 13.6589 14.6839 14.422 14.1213 14.9846C13.5587 15.5472 12.7956 15.8633 12 15.8633C11.2044 15.8633 10.4413 15.5472 9.87868 14.9846C9.31607 14.422 9 13.6589 9 12.8633C9 12.0676 9.31607 11.3046 9.87868 10.742C10.4413 10.1794 11.2044 9.86328 12 9.86328Z" fill="#494040"/>
</g>
<defs>
<clipPath id="clip0_2532_378">
<rect width="24" height="24" fill="white" transform="translate(0 0.863281)"/>
</clipPath>
</defs>
</svg>
