<svg width="79" height="37" viewBox="0 0 79 37" fill="none" xmlns="http://www.w3.org/2000/svg">
<g id="Frame" clip-path="url(#clip0_2532_346)">
<path id="Vector" fill-rule="evenodd" clip-rule="evenodd" d="M41.0431 0C46.135 0 50.7478 2.06305 54.085 5.39836C57.4222 8.73366 59.4864 13.3412 59.4864 18.433C59.4864 18.5217 59.4864 18.6105 59.4837 18.6992L59.115 18.7073C59.115 18.6159 59.1177 18.5244 59.1177 18.433C59.1177 13.4434 57.0939 8.92733 53.824 5.65926C50.5541 2.38851 46.0354 0.365808 41.0431 0.365808C36.0508 0.365808 31.5321 2.38851 28.2622 5.65657C25.3125 8.60724 23.3802 12.5666 23.0276 16.9751C22.9038 16.9859 22.78 16.9993 22.6562 17.0101C23.0007 12.4886 24.9815 8.42165 28.0038 5.39836C31.341 2.06305 35.9512 0 41.0431 0ZM59.0181 22.5752C58.2296 26.0019 56.4883 29.0629 54.085 31.4649C50.7478 34.8002 46.1377 36.8632 41.0431 36.8632C40.1603 36.8632 39.2937 36.8013 38.4433 36.6803C38.524 36.5754 38.594 36.4597 38.6505 36.336C39.4337 36.4382 40.2303 36.492 41.0404 36.492C46.0327 36.492 50.5514 34.4693 53.8213 31.2013C56.1546 28.8692 57.8555 25.9024 58.636 22.5806L59.0181 22.5752ZM34.9985 35.8519C32.3476 34.932 29.9712 33.4257 28.0254 31.4864L28.1868 31.1286L28.2649 31.2066C30.138 33.0787 32.4229 34.5419 34.9689 35.4511C34.9635 35.5856 34.9742 35.7201 34.9985 35.8519ZM25.2695 27.987C23.975 25.8567 23.103 23.4467 22.7612 20.8672C22.8823 20.8564 23.0061 20.8457 23.1272 20.8349C23.4502 23.2638 24.2576 25.542 25.4471 27.5674L25.2695 27.987Z" fill="#494040"/>
<path id="Vector_2" fill-rule="evenodd" clip-rule="evenodd" d="M46.7377 11.1114C46.8426 10.8639 47.1306 10.7483 47.3782 10.8532C47.6258 10.9581 47.7415 11.2459 47.6366 11.4933L44.2106 19.5572C46.8669 15.2213 49.7358 11.8053 52.0099 12.2707C53.2371 12.5235 53.9315 13.1583 54.2167 14.019C54.4455 14.6995 54.3971 15.5065 54.1468 16.3564C53.9099 17.1607 53.4901 18.016 52.9545 18.8471C52.637 19.3367 52.279 19.8208 51.8888 20.2808C52.9572 20.2243 54.1414 20.2108 55.4386 20.2566C56.3213 20.2162 57.3871 20.1893 58.5632 20.1624C61.72 20.0844 65.6574 19.9876 69.1103 19.5438C73.672 18.9601 77.3806 17.8062 77.0657 15.3558C77.0334 15.0895 77.2218 14.8448 77.4883 14.8098C77.7547 14.7748 77.9996 14.9658 78.0346 15.2321C78.4464 18.441 74.3233 19.8585 69.2314 20.5094C65.7274 20.9586 61.7604 21.0554 58.5847 21.1361C56.3536 21.1899 52.9492 21.1496 50.9199 21.3217C49.4586 22.7419 47.7846 23.7506 46.4551 23.7183C45.6073 23.6968 45.0395 23.5327 44.7596 23.2826C44.3963 22.9571 44.372 22.5698 44.6815 22.1636C44.8619 21.9269 45.1929 21.6848 45.6666 21.4643C46.6031 21.0285 48.226 20.6036 50.4947 20.383C51.1002 19.7536 51.6654 19.0435 52.1337 18.3173C52.6208 17.5614 53.003 16.7922 53.2102 16.0794C53.4067 15.4123 53.4524 14.8044 53.2909 14.323C53.1133 13.7931 52.6531 13.395 51.8134 13.2228C48.0214 12.4455 41.6861 25.7168 38.8307 32.2153C38.3597 33.3234 37.8753 34.636 37.3532 35.6958C37.2482 35.9433 36.9603 36.0589 36.7127 35.954C36.4678 35.8491 36.352 35.5667 36.4516 35.3219C36.457 35.3058 36.9549 34.0685 37.7865 32.1776L43.5889 18.5136C41.5327 20.3561 39.4066 21.8139 37.921 21.9404C36.4597 23.3606 34.7857 24.3692 33.4562 24.3396C32.6058 24.3181 32.0406 24.154 31.7607 23.9039C31.3974 23.5784 31.3732 23.1911 31.6827 22.7823C31.863 22.5456 32.194 22.3035 32.6677 22.0829C33.6042 21.6472 35.2271 21.2222 37.4958 21.0016C38.5993 19.8531 39.7592 18.2366 40.2113 16.698C40.6204 15.3074 40.4105 14.1696 38.8146 13.8415C35.0252 13.0722 28.69 26.3462 25.8372 32.842C25.3662 33.9502 24.8818 35.2628 24.357 36.3225C24.252 36.57 23.9641 36.6856 23.7165 36.5807C23.4716 36.4758 23.3558 36.1934 23.4554 35.9487C23.4608 35.9325 23.9587 34.6952 24.7903 32.8043L31.5454 16.9024C27.3712 19.9123 19.1386 19.6944 12.1655 19.5088C8.64799 19.4147 5.45882 19.3313 3.34348 19.6756C1.7637 19.9311 0.848661 20.4099 0.99399 21.3029C1.03705 21.5692 0.856734 21.8193 0.590298 21.8624C0.323861 21.9054 0.0735719 21.7252 0.0305114 21.4589C-0.230543 19.8558 1.01014 19.065 3.18469 18.71C5.38347 18.3522 8.61839 18.4383 12.1843 18.5324C20.3281 18.7476 30.2428 19.0112 32.7 14.1401C32.7134 14.1132 32.7296 14.0863 32.7484 14.062L33.7388 11.7327C33.8438 11.4853 34.1317 11.3696 34.3793 11.4745C34.6269 11.5794 34.7426 11.8672 34.6377 12.1147L31.2117 20.1813C33.868 15.8454 36.7369 12.4294 39.011 12.8947C41.191 13.3412 41.7211 15.0277 41.1479 16.9804C40.9111 17.7874 40.4912 18.6427 39.9557 19.4712C39.6381 19.9607 39.447 20.2404 39.0595 20.7031C40.2678 20.2673 42.3697 18.6508 44.4016 16.6039L46.7377 11.1114ZM33.4831 23.3686C34.2905 23.3875 35.2809 22.9033 36.2551 22.1394C34.8153 22.3573 33.7549 22.6639 33.0848 22.9759C32.8587 23.0808 32.6919 23.1777 32.5789 23.2637C32.7592 23.3229 33.0579 23.3579 33.4831 23.3686ZM46.4766 22.75C47.2867 22.7688 48.2744 22.2847 49.2486 21.5208C47.8115 21.7386 46.7484 22.0453 46.0783 22.3573C45.8522 22.4622 45.6854 22.559 45.575 22.6451C45.7554 22.7016 46.0541 22.7392 46.4766 22.75Z" fill="#494040"/>
</g>
<defs>
<clipPath id="clip0_2532_346">
<rect width="78.0633" height="36.8632" fill="white"/>
</clipPath>
</defs>
</svg>
