<svg width="220" height="16" viewBox="0 0 220 16" fill="none" xmlns="http://www.w3.org/2000/svg">
<path d="M214.516 5.8906C214.516 6.36809 214.635 6.78903 214.874 7.15343C215.113 7.50527 215.402 7.81312 215.741 8.077C216.081 8.32831 216.552 8.63616 217.155 9.00056C217.783 9.39009 218.279 9.72936 218.644 10.0184C219.021 10.2948 219.341 10.6404 219.605 11.055C219.869 11.4697 220.001 11.9597 220.001 12.5252C220.001 13.1409 219.838 13.7001 219.511 14.2027C219.197 14.6927 218.738 15.0823 218.135 15.3713C217.544 15.6477 216.853 15.7859 216.062 15.7859C215.559 15.7859 215.063 15.7231 214.573 15.5975C214.083 15.4844 213.655 15.3147 213.291 15.0885C213.228 15.0509 213.184 15.0069 213.159 14.9566C213.134 14.9063 213.121 14.831 213.121 14.7304L212.933 12.0351C212.92 11.9849 212.945 11.9535 213.008 11.9409C213.084 11.9283 213.128 11.9472 213.14 11.9974C213.442 12.9524 213.863 13.7629 214.403 14.4289C214.943 15.0948 215.647 15.4278 216.514 15.4278C217.105 15.4278 217.595 15.2707 217.984 14.9566C218.386 14.6299 218.587 14.1022 218.587 13.3734C218.587 12.8205 218.462 12.3367 218.21 11.922C217.959 11.5074 217.651 11.1618 217.287 10.8854C216.935 10.5964 216.457 10.2697 215.854 9.90528C215.264 9.52831 214.793 9.20789 214.441 8.94402C214.101 8.66758 213.812 8.33459 213.574 7.94506C213.335 7.54296 213.216 7.07804 213.216 6.55029C213.216 5.90945 213.385 5.36285 213.724 4.91049C214.076 4.45813 214.529 4.12515 215.082 3.91153C215.647 3.68536 216.238 3.57227 216.853 3.57227C217.695 3.57227 218.455 3.71677 219.134 4.00578C219.322 4.08117 219.417 4.19426 219.417 4.34504L219.511 6.70108C219.511 6.75134 219.479 6.78275 219.417 6.79532C219.354 6.80788 219.316 6.78903 219.304 6.73877C219.165 6.06024 218.87 5.41939 218.418 4.81625C217.965 4.20054 217.324 3.89269 216.495 3.89269C215.867 3.89269 215.377 4.08117 215.025 4.45813C214.686 4.8351 214.516 5.31259 214.516 5.8906Z" fill="#494040"/>
<path d="M211.593 15.3341C211.643 15.3341 211.669 15.3718 211.669 15.4472C211.669 15.5226 211.643 15.5603 211.593 15.5603C211.354 15.5603 210.971 15.5477 210.443 15.5226C209.941 15.4975 209.57 15.4849 209.331 15.4849C209.042 15.4849 208.684 15.4975 208.257 15.5226C207.83 15.5477 207.509 15.5603 207.296 15.5603C207.246 15.5603 207.22 15.5226 207.22 15.4472C207.22 15.3718 207.246 15.3341 207.296 15.3341C207.723 15.3341 208.031 15.2964 208.219 15.221C208.408 15.1331 208.502 14.9823 208.502 14.7687C208.502 14.5551 208.408 14.2598 208.219 13.8828L206.108 9.51001H202.64L201.095 13.0723C200.919 13.487 200.831 13.8325 200.831 14.109C200.831 14.9257 201.44 15.3341 202.659 15.3341C202.722 15.3341 202.753 15.3718 202.753 15.4472C202.753 15.5226 202.722 15.5603 202.659 15.5603C202.433 15.5603 202.106 15.5477 201.679 15.5226C201.202 15.4975 200.787 15.4849 200.435 15.4849C200.108 15.4849 199.719 15.4975 199.266 15.5226C198.864 15.5477 198.538 15.5603 198.286 15.5603C198.236 15.5603 198.211 15.5226 198.211 15.4472C198.211 15.3718 198.236 15.3341 198.286 15.3341C198.638 15.3341 198.933 15.265 199.172 15.1268C199.424 14.9886 199.662 14.7498 199.888 14.4106C200.115 14.0713 200.372 13.5687 200.661 12.9027L204.676 3.64821C204.688 3.61051 204.732 3.59166 204.808 3.59166C204.883 3.57909 204.927 3.59794 204.94 3.64821L209.482 12.9781C209.909 13.8954 210.274 14.5174 210.575 14.8441C210.877 15.1708 211.216 15.3341 211.593 15.3341ZM202.81 9.0765H205.901L204.28 5.68382L202.81 9.0765Z" fill="#494040"/>
<path d="M191.801 5.8906C191.801 6.36809 191.921 6.78903 192.159 7.15343C192.398 7.50527 192.687 7.81312 193.026 8.077C193.366 8.32831 193.837 8.63616 194.44 9.00056C195.068 9.39009 195.565 9.72936 195.929 10.0184C196.306 10.2948 196.626 10.6404 196.89 11.055C197.154 11.4697 197.286 11.9597 197.286 12.5252C197.286 13.1409 197.123 13.7001 196.796 14.2027C196.482 14.6927 196.023 15.0823 195.42 15.3713C194.83 15.6477 194.138 15.7859 193.347 15.7859C192.844 15.7859 192.348 15.7231 191.858 15.5975C191.368 15.4844 190.941 15.3147 190.576 15.0885C190.513 15.0509 190.469 15.0069 190.444 14.9566C190.419 14.9063 190.406 14.831 190.406 14.7304L190.218 12.0351C190.205 11.9849 190.231 11.9535 190.293 11.9409C190.369 11.9283 190.413 11.9472 190.425 11.9974C190.727 12.9524 191.148 13.7629 191.688 14.4289C192.228 15.0948 192.932 15.4278 193.799 15.4278C194.39 15.4278 194.88 15.2707 195.269 14.9566C195.671 14.6299 195.872 14.1022 195.872 13.3734C195.872 12.8205 195.747 12.3367 195.495 11.922C195.244 11.5074 194.936 11.1618 194.572 10.8854C194.22 10.5964 193.743 10.2697 193.139 9.90528C192.549 9.52831 192.078 9.20789 191.726 8.94402C191.387 8.66758 191.098 8.33459 190.859 7.94506C190.62 7.54296 190.501 7.07804 190.501 6.55029C190.501 5.90945 190.67 5.36285 191.01 4.91049C191.361 4.45813 191.814 4.12515 192.367 3.91153C192.932 3.68536 193.523 3.57227 194.138 3.57227C194.98 3.57227 195.741 3.71677 196.419 4.00578C196.608 4.08117 196.702 4.19426 196.702 4.34504L196.796 6.70108C196.796 6.75134 196.765 6.78275 196.702 6.79532C196.639 6.80788 196.601 6.78903 196.589 6.73877C196.45 6.06024 196.155 5.41939 195.703 4.81625C195.25 4.20054 194.61 3.89269 193.78 3.89269C193.152 3.89269 192.662 4.08117 192.31 4.45813C191.971 4.8351 191.801 5.31259 191.801 5.8906Z" fill="#494040"/>
<path d="M187.768 12.6945C187.768 12.6694 187.794 12.6568 187.844 12.6568C187.882 12.6568 187.913 12.6694 187.938 12.6945C187.976 12.7071 187.995 12.7197 187.995 12.7322C187.869 13.6369 187.806 14.4851 187.806 15.2767C187.806 15.3773 187.787 15.4526 187.75 15.5029C187.712 15.5406 187.636 15.5595 187.523 15.5595H179.494C179.456 15.5595 179.438 15.5218 179.438 15.4464C179.438 15.371 179.456 15.3333 179.494 15.3333C179.946 15.3333 180.273 15.3019 180.474 15.239C180.675 15.1762 180.813 15.0568 180.889 14.8809C180.964 14.6924 181.002 14.4097 181.002 14.0327V5.306C181.002 4.92904 180.964 4.6526 180.889 4.47668C180.813 4.30076 180.669 4.18139 180.455 4.11856C180.254 4.04317 179.934 4.00548 179.494 4.00548C179.456 4.00548 179.438 3.96778 179.438 3.89239C179.438 3.81699 179.456 3.7793 179.494 3.7793H187.184C187.31 3.7793 187.373 3.83584 187.373 3.94893L187.41 6.32381C187.41 6.36151 187.373 6.38664 187.297 6.3992C187.234 6.3992 187.197 6.38036 187.184 6.34266C187.096 5.65156 186.851 5.13009 186.449 4.77825C186.047 4.41385 185.519 4.23165 184.866 4.23165H183.905C183.352 4.23165 182.981 4.31333 182.792 4.47668C182.604 4.62747 182.51 4.92904 182.51 5.3814V9.20759H184.583C185.224 9.20759 185.695 9.10079 185.997 8.88717C186.298 8.66099 186.449 8.31544 186.449 7.85052C186.449 7.82539 186.48 7.81282 186.543 7.81282C186.619 7.81282 186.656 7.82539 186.656 7.85052L186.638 9.43377L186.656 10.2819C186.682 10.684 186.694 10.9982 186.694 11.2244C186.694 11.2495 186.656 11.2621 186.581 11.2621C186.506 11.2621 186.468 11.2495 186.468 11.2244C186.468 10.684 186.311 10.2882 185.997 10.0369C185.695 9.77304 185.205 9.6411 184.527 9.6411H182.51V13.9574C182.51 14.4097 182.591 14.7176 182.755 14.8809C182.931 15.0443 183.276 15.1259 183.791 15.1259H185.017C185.733 15.1259 186.323 14.9186 186.788 14.504C187.266 14.0767 187.593 13.4736 187.768 12.6945Z" fill="#494040"/>
<path d="M173.936 3.57227C174.514 3.57227 175.111 3.62881 175.727 3.7419C176.342 3.84242 176.833 3.98693 177.197 4.17541C177.297 4.22567 177.36 4.28222 177.385 4.34504C177.423 4.39531 177.455 4.48955 177.48 4.62777L177.687 6.90841C177.687 6.9461 177.656 6.97123 177.593 6.9838C177.53 6.9838 177.492 6.96495 177.48 6.92725C177.153 5.94715 176.619 5.21835 175.878 4.74086C175.136 4.2508 174.244 4.00578 173.201 4.00578C172.284 4.00578 171.486 4.21939 170.807 4.64662C170.129 5.06128 169.607 5.65186 169.243 6.41835C168.891 7.18485 168.715 8.07071 168.715 9.07596C168.715 10.2445 168.941 11.3189 169.394 12.299C169.846 13.2791 170.456 14.0582 171.222 14.6362C172.001 15.2016 172.849 15.4844 173.767 15.4844C175.576 15.4844 176.87 14.4477 177.649 12.3744C177.649 12.3367 177.674 12.3179 177.725 12.3179C177.762 12.3179 177.794 12.3241 177.819 12.3367C177.857 12.3493 177.875 12.3681 177.875 12.3932L177.612 14.6739C177.586 14.8247 177.555 14.9252 177.517 14.9755C177.492 15.0132 177.423 15.0571 177.31 15.1074C176.154 15.5598 174.973 15.7859 173.767 15.7859C172.246 15.7859 170.977 15.4844 169.959 14.8812C168.941 14.2655 168.194 13.4864 167.716 12.544C167.239 11.6016 167 10.6152 167 9.58486C167 8.41627 167.32 7.37961 167.961 6.4749C168.615 5.55762 169.469 4.84766 170.525 4.34504C171.593 3.82986 172.73 3.57227 173.936 3.57227Z" fill="#494040"/>
<path d="M165.689 3.7793C165.727 3.7793 165.746 3.81699 165.746 3.89239C165.746 3.96778 165.727 4.00548 165.689 4.00548C164.659 4.00548 164.144 4.65888 164.144 5.96569V15.8045C164.144 15.8296 164.112 15.8485 164.049 15.861C163.999 15.8736 163.962 15.8673 163.936 15.8422L155.097 5.36255V13.3919C155.097 14.0579 155.216 14.5479 155.455 14.8621C155.706 15.1762 156.083 15.3333 156.586 15.3333C156.623 15.3333 156.642 15.371 156.642 15.4464C156.642 15.5218 156.623 15.5595 156.586 15.5595C156.259 15.5595 156.008 15.5532 155.832 15.5406L154.87 15.5218L153.853 15.5406C153.664 15.5532 153.388 15.5595 153.023 15.5595C152.998 15.5595 152.986 15.5218 152.986 15.4464C152.986 15.371 152.998 15.3333 153.023 15.3333C153.564 15.3333 153.959 15.1762 154.211 14.8621C154.475 14.5479 154.606 14.0579 154.606 13.3919V4.8348C154.054 4.28192 153.507 4.00548 152.967 4.00548C152.929 4.00548 152.91 3.96778 152.91 3.89239C152.91 3.81699 152.929 3.7793 152.967 3.7793L153.702 3.79814C153.853 3.81071 154.066 3.81699 154.343 3.81699L155.323 3.79814C155.436 3.78558 155.58 3.7793 155.756 3.7793C155.857 3.7793 155.926 3.80443 155.964 3.85469C156.014 3.89239 156.089 3.98663 156.19 4.13741C156.303 4.31333 156.46 4.52066 156.661 4.75941L163.673 13.2223V5.96569C163.673 5.29972 163.553 4.80967 163.314 4.49553C163.076 4.16883 162.705 4.00548 162.202 4.00548C162.177 4.00548 162.165 3.96778 162.165 3.89239C162.165 3.81699 162.177 3.7793 162.202 3.7793L162.956 3.79814C163.333 3.82328 163.654 3.83584 163.918 3.83584C164.144 3.83584 164.47 3.82328 164.898 3.79814L165.689 3.7793Z" fill="#494040"/>
<path d="M149.915 14.0327C149.915 14.4097 149.952 14.6924 150.028 14.8809C150.103 15.0568 150.241 15.1762 150.442 15.239C150.656 15.3019 150.989 15.3333 151.441 15.3333C151.466 15.3333 151.479 15.371 151.479 15.4464C151.479 15.5218 151.466 15.5595 151.441 15.5595C151.039 15.5595 150.725 15.5532 150.499 15.5406L149.142 15.5218L147.822 15.5406C147.584 15.5532 147.257 15.5595 146.842 15.5595C146.817 15.5595 146.805 15.5218 146.805 15.4464C146.805 15.371 146.817 15.3333 146.842 15.3333C147.295 15.3333 147.628 15.3019 147.841 15.239C148.055 15.1762 148.199 15.0568 148.275 14.8809C148.35 14.6924 148.388 14.4097 148.388 14.0327V5.306C148.388 4.92904 148.35 4.6526 148.275 4.47668C148.199 4.30076 148.055 4.18139 147.841 4.11856C147.628 4.04317 147.295 4.00548 146.842 4.00548C146.817 4.00548 146.805 3.96778 146.805 3.89239C146.805 3.81699 146.817 3.7793 146.842 3.7793L147.822 3.79814C148.375 3.82328 148.815 3.83584 149.142 3.83584C149.506 3.83584 149.965 3.82328 150.518 3.79814L151.441 3.7793C151.466 3.7793 151.479 3.81699 151.479 3.89239C151.479 3.96778 151.466 4.00548 151.441 4.00548C151.002 4.00548 150.675 4.04317 150.461 4.11856C150.248 4.19396 150.103 4.3259 150.028 4.51438C149.952 4.6903 149.915 4.96674 149.915 5.3437V14.0327Z" fill="#494040"/>
<path d="M146.188 15.3332C146.213 15.3332 146.226 15.3709 146.226 15.4463C146.226 15.5217 146.213 15.5594 146.188 15.5594H143.455C143.154 15.5594 142.582 15.0253 141.74 13.9573C140.911 12.8766 139.918 11.4002 138.762 9.52792C138.473 9.59075 138.197 9.62216 137.933 9.62216C137.694 9.62216 137.386 9.60959 137.009 9.58446V14.0326C137.009 14.4096 137.047 14.6923 137.122 14.8808C137.198 15.0567 137.336 15.1761 137.537 15.2389C137.75 15.3018 138.083 15.3332 138.536 15.3332C138.573 15.3332 138.592 15.3709 138.592 15.4463C138.592 15.5217 138.573 15.5594 138.536 15.5594C138.146 15.5594 137.838 15.5531 137.612 15.5405L136.255 15.5217L134.936 15.5405C134.697 15.5531 134.377 15.5594 133.975 15.5594C133.937 15.5594 133.918 15.5217 133.918 15.4463C133.918 15.3709 133.937 15.3332 133.975 15.3332C134.427 15.3332 134.76 15.3018 134.973 15.2389C135.187 15.1761 135.332 15.0567 135.407 14.8808C135.482 14.6923 135.52 14.4096 135.52 14.0326V5.30591C135.52 4.92894 135.482 4.6525 135.407 4.47659C135.332 4.30067 135.187 4.1813 134.973 4.11847C134.772 4.04308 134.446 4.00538 133.993 4.00538C133.968 4.00538 133.956 3.96768 133.956 3.89229C133.956 3.8169 133.968 3.7792 133.993 3.7792L134.936 3.79805C135.489 3.82318 135.928 3.83575 136.255 3.83575C136.481 3.83575 136.695 3.82946 136.896 3.8169C137.097 3.80433 137.273 3.79177 137.424 3.7792C137.838 3.7415 138.228 3.72266 138.592 3.72266C139.66 3.72266 140.483 3.93627 141.061 4.3635C141.639 4.77816 141.928 5.35617 141.928 6.09754C141.928 6.68811 141.753 7.24728 141.401 7.77503C141.049 8.30278 140.59 8.73001 140.025 9.05671C141.08 10.6525 141.96 11.9028 142.664 12.8075C143.38 13.6997 144.014 14.3468 144.567 14.7489C145.12 15.1384 145.66 15.3332 146.188 15.3332ZM137.009 9.09441C137.487 9.14467 137.857 9.1698 138.121 9.1698C138.925 9.1698 139.497 8.99388 139.836 8.64205C140.188 8.27765 140.364 7.65566 140.364 6.77607C140.364 5.7834 140.176 5.07973 139.799 4.66507C139.422 4.25041 138.9 4.04308 138.234 4.04308C137.908 4.04308 137.656 4.07449 137.48 4.13732C137.317 4.20015 137.198 4.3258 137.122 4.51428C137.047 4.6902 137.009 4.96664 137.009 5.34361V9.09441Z" fill="#494040"/>
<path d="M126.643 13.9573C126.643 14.3594 126.693 14.6546 126.793 14.8431C126.894 15.019 127.082 15.1447 127.359 15.2201C127.648 15.2955 128.106 15.3332 128.735 15.3332C128.772 15.3332 128.791 15.3709 128.791 15.4463C128.791 15.5217 128.772 15.5594 128.735 15.5594C128.22 15.5594 127.817 15.5531 127.528 15.5405L125.889 15.5217L124.588 15.5405C124.349 15.5531 124.023 15.5594 123.608 15.5594C123.583 15.5594 123.57 15.5217 123.57 15.4463C123.57 15.3709 123.583 15.3332 123.608 15.3332C124.06 15.3332 124.387 15.3018 124.588 15.2389C124.802 15.1761 124.946 15.0567 125.022 14.8808C125.097 14.6923 125.135 14.4096 125.135 14.0326V5.30591C125.135 4.92894 125.097 4.6525 125.022 4.47659C124.946 4.30067 124.802 4.1813 124.588 4.11847C124.387 4.04308 124.06 4.00538 123.608 4.00538C123.583 4.00538 123.57 3.96768 123.57 3.89229C123.57 3.8169 123.583 3.7792 123.608 3.7792L124.588 3.79805C125.116 3.82318 125.543 3.83575 125.87 3.83575C126.171 3.83575 126.529 3.8169 126.944 3.7792C127.095 3.7792 127.327 3.77292 127.642 3.76035C127.968 3.73522 128.251 3.72266 128.49 3.72266C129.671 3.72266 130.62 3.98653 131.336 4.51428C132.052 5.02947 132.41 5.81481 132.41 6.87031C132.41 7.68707 132.203 8.37817 131.788 8.94362C131.386 9.50907 130.865 9.93001 130.224 10.2065C129.595 10.4829 128.942 10.6211 128.264 10.6211C127.899 10.6211 127.598 10.5897 127.359 10.5269C127.321 10.5269 127.302 10.4955 127.302 10.4326C127.302 10.3949 127.309 10.3572 127.321 10.3195C127.346 10.2818 127.371 10.2693 127.397 10.2818C127.598 10.3321 127.824 10.3572 128.075 10.3572C128.816 10.3572 129.445 10.0871 129.96 9.54677C130.475 9.00645 130.733 8.22739 130.733 7.20958C130.733 6.21691 130.481 5.44413 129.979 4.89125C129.476 4.3258 128.81 4.04308 127.981 4.04308C127.604 4.04308 127.321 4.07449 127.133 4.13732C126.957 4.18758 126.831 4.30695 126.756 4.49543C126.68 4.67135 126.643 4.95408 126.643 5.34361V13.9573Z" fill="#494040"/>
<path d="M111.954 5.8906C111.954 6.36809 112.073 6.78903 112.312 7.15343C112.55 7.50527 112.839 7.81312 113.179 8.077C113.518 8.32831 113.989 8.63616 114.592 9.00056C115.221 9.39009 115.717 9.72936 116.081 10.0184C116.458 10.2948 116.779 10.6404 117.043 11.055C117.306 11.4697 117.438 11.9597 117.438 12.5252C117.438 13.1409 117.275 13.7001 116.948 14.2027C116.634 14.6927 116.176 15.0823 115.572 15.3713C114.982 15.6477 114.291 15.7859 113.499 15.7859C112.997 15.7859 112.5 15.7231 112.01 15.5975C111.52 15.4844 111.093 15.3147 110.728 15.0885C110.666 15.0509 110.622 15.0069 110.597 14.9566C110.571 14.9063 110.559 14.831 110.559 14.7304L110.37 12.0351C110.358 11.9849 110.383 11.9535 110.446 11.9409C110.521 11.9283 110.565 11.9472 110.578 11.9974C110.879 12.9524 111.3 13.7629 111.84 14.4289C112.381 15.0948 113.084 15.4278 113.952 15.4278C114.542 15.4278 115.032 15.2707 115.422 14.9566C115.824 14.6299 116.025 14.1022 116.025 13.3734C116.025 12.8205 115.899 12.3367 115.648 11.922C115.397 11.5074 115.089 11.1618 114.724 10.8854C114.372 10.5964 113.895 10.2697 113.292 9.90528C112.701 9.52831 112.23 9.20789 111.878 8.94402C111.539 8.66758 111.25 8.33459 111.011 7.94506C110.772 7.54296 110.653 7.07804 110.653 6.55029C110.653 5.90945 110.823 5.36285 111.162 4.91049C111.514 4.45813 111.966 4.12515 112.519 3.91153C113.084 3.68536 113.675 3.57227 114.291 3.57227C115.133 3.57227 115.893 3.71677 116.571 4.00578C116.76 4.08117 116.854 4.19426 116.854 4.34504L116.948 6.70108C116.948 6.75134 116.917 6.78275 116.854 6.79532C116.791 6.80788 116.754 6.78903 116.741 6.73877C116.603 6.06024 116.308 5.41939 115.855 4.81625C115.403 4.20054 114.762 3.89269 113.933 3.89269C113.304 3.89269 112.814 4.08117 112.462 4.45813C112.123 4.8351 111.954 5.31259 111.954 5.8906Z" fill="#494040"/>
<path d="M109.031 15.3341C109.081 15.3341 109.106 15.3718 109.106 15.4472C109.106 15.5226 109.081 15.5603 109.031 15.5603C108.792 15.5603 108.409 15.5477 107.881 15.5226C107.378 15.4975 107.008 15.4849 106.769 15.4849C106.48 15.4849 106.122 15.4975 105.695 15.5226C105.267 15.5477 104.947 15.5603 104.733 15.5603C104.683 15.5603 104.658 15.5226 104.658 15.4472C104.658 15.3718 104.683 15.3341 104.733 15.3341C105.161 15.3341 105.468 15.2964 105.657 15.221C105.845 15.1331 105.94 14.9823 105.94 14.7687C105.94 14.5551 105.845 14.2598 105.657 13.8828L103.546 9.51001H100.078L98.5322 13.0723C98.3563 13.487 98.2683 13.8325 98.2683 14.109C98.2683 14.9257 98.8778 15.3341 100.097 15.3341C100.159 15.3341 100.191 15.3718 100.191 15.4472C100.191 15.5226 100.159 15.5603 100.097 15.5603C99.8705 15.5603 99.5437 15.5477 99.1165 15.5226C98.639 15.4975 98.2244 15.4849 97.8725 15.4849C97.5458 15.4849 97.1563 15.4975 96.7039 15.5226C96.3018 15.5477 95.9751 15.5603 95.7238 15.5603C95.6736 15.5603 95.6484 15.5226 95.6484 15.4472C95.6484 15.3718 95.6736 15.3341 95.7238 15.3341C96.0757 15.3341 96.371 15.265 96.6097 15.1268C96.861 14.9886 97.0998 14.7498 97.3259 14.4106C97.5521 14.0713 97.8097 13.5687 98.0987 12.9027L102.113 3.64821C102.126 3.61051 102.17 3.59166 102.245 3.59166C102.321 3.57909 102.365 3.59794 102.377 3.64821L106.92 12.9781C107.347 13.8954 107.711 14.5174 108.013 14.8441C108.314 15.1708 108.654 15.3341 109.031 15.3341ZM100.247 9.0765H103.339L101.718 5.68382L100.247 9.0765Z" fill="#494040"/>
<path d="M88.6844 15.6354C88.3075 15.6354 87.874 15.6166 87.3839 15.5789C87.1954 15.5663 86.963 15.5538 86.6865 15.5412C86.4101 15.5286 86.1022 15.5223 85.763 15.5223L84.4436 15.5412C84.2048 15.5538 83.8781 15.56 83.4635 15.56C83.4383 15.56 83.4258 15.5223 83.4258 15.447C83.4258 15.3716 83.4383 15.3339 83.4635 15.3339C83.9158 15.3339 84.2488 15.3025 84.4624 15.2396C84.676 15.1768 84.8205 15.0574 84.8959 14.8815C84.9713 14.693 85.009 14.4103 85.009 14.0333V5.30659C85.009 4.92963 84.9713 4.65319 84.8959 4.47727C84.8205 4.30135 84.676 4.18198 84.4624 4.11915C84.2614 4.04376 83.941 4.00606 83.5012 4.00606C83.4635 4.00606 83.4446 3.96837 83.4446 3.89297C83.4446 3.81758 83.4635 3.77988 83.5012 3.77988L84.4436 3.79873C84.9965 3.82386 85.4363 3.83643 85.763 3.83643C86.2405 3.83643 86.7242 3.81758 87.2143 3.77988C87.8174 3.75475 88.2195 3.74219 88.4206 3.74219C89.7148 3.74219 90.8646 3.9935 91.8698 4.49612C92.875 4.99874 93.6541 5.68356 94.207 6.55058C94.7599 7.4176 95.0363 8.39142 95.0363 9.47206C95.0363 10.6909 94.7473 11.7715 94.1693 12.714C93.6038 13.6438 92.8373 14.3663 91.8698 14.8815C90.9023 15.3841 89.8405 15.6354 88.6844 15.6354ZM88.496 15.2962C89.4384 15.2962 90.2677 15.0888 90.9839 14.6742C91.7127 14.2469 92.2782 13.6312 92.6803 12.827C93.0949 12.0103 93.3023 11.0302 93.3023 9.88672C93.3023 8.79352 93.1075 7.80713 92.718 6.92754C92.341 6.03539 91.7944 5.33801 91.0782 4.83539C90.3745 4.3202 89.5515 4.06261 88.609 4.06261C88.0687 4.06261 87.6541 4.09402 87.3651 4.15685C87.0761 4.21968 86.8624 4.34533 86.7242 4.53381C86.586 4.70973 86.5169 4.97989 86.5169 5.34429V13.826C86.5169 14.3663 86.6488 14.7496 86.9127 14.9757C87.1891 15.1894 87.7169 15.2962 88.496 15.2962Z" fill="#494040"/>
<path d="M70.889 15.7859C69.7204 15.7859 68.6774 15.5158 67.7601 14.9755C66.8554 14.4226 66.1518 13.6812 65.6491 12.7514C65.1591 11.809 64.9141 10.7849 64.9141 9.6791C64.9141 8.38485 65.2408 7.27909 65.8942 6.36181C66.5476 5.43196 67.3832 4.73457 68.401 4.26965C69.4314 3.80473 70.4806 3.57227 71.5486 3.57227C72.7424 3.57227 73.7916 3.85499 74.6963 4.42044C75.601 4.97332 76.2921 5.7084 76.7696 6.62568C77.2597 7.54296 77.5047 8.51679 77.5047 9.54716C77.5047 10.6906 77.2031 11.7398 76.6 12.6948C75.9968 13.6498 75.1864 14.4037 74.1686 14.9566C73.1633 15.5095 72.0701 15.7859 70.889 15.7859ZM71.5486 15.3713C72.3528 15.3713 73.0754 15.1639 73.7162 14.7493C74.357 14.3346 74.8597 13.7315 75.2241 12.9398C75.601 12.1357 75.7895 11.1807 75.7895 10.0749C75.7895 8.90632 75.5822 7.86338 75.1675 6.9461C74.7654 6.02882 74.1811 5.31259 73.4146 4.7974C72.6607 4.28222 71.7811 4.02462 70.7759 4.02462C69.4691 4.02462 68.4512 4.4707 67.7224 5.36285C66.9936 6.24243 66.6293 7.46129 66.6293 9.01941C66.6293 10.2131 66.8366 11.2938 67.2512 12.2613C67.6659 13.2289 68.2439 13.9891 68.9853 14.5419C69.7392 15.0948 70.5937 15.3713 71.5486 15.3713Z" fill="#494040"/>
<path d="M57.4887 5.8906C57.4887 6.36809 57.6081 6.78903 57.8469 7.15343C58.0856 7.50527 58.3746 7.81312 58.7139 8.077C59.0531 8.32831 59.5243 8.63616 60.1275 9.00056C60.7558 9.39009 61.2521 9.72936 61.6165 10.0184C61.9935 10.2948 62.3139 10.6404 62.5778 11.055C62.8416 11.4697 62.9736 11.9597 62.9736 12.5252C62.9736 13.1409 62.8102 13.7001 62.4835 14.2027C62.1694 14.6927 61.7107 15.0823 61.1076 15.3713C60.517 15.6477 59.8259 15.7859 59.0343 15.7859C58.5317 15.7859 58.0353 15.7231 57.5453 15.5975C57.0552 15.4844 56.628 15.3147 56.2636 15.0885C56.2008 15.0509 56.1568 15.0069 56.1317 14.9566C56.1065 14.9063 56.094 14.831 56.094 14.7304L55.9055 12.0351C55.8929 11.9849 55.9181 11.9535 55.9809 11.9409C56.0563 11.9283 56.1003 11.9472 56.1128 11.9974C56.4144 12.9524 56.8353 13.7629 57.3757 14.4289C57.916 15.0948 58.6196 15.4278 59.4867 15.4278C60.0772 15.4278 60.5673 15.2707 60.9568 14.9566C61.3589 14.6299 61.56 14.1022 61.56 13.3734C61.56 12.8205 61.4343 12.3367 61.183 11.922C60.9317 11.5074 60.6238 11.1618 60.2594 10.8854C59.9076 10.5964 59.4301 10.2697 58.827 9.90528C58.2364 9.52831 57.7652 9.20789 57.4133 8.94402C57.0741 8.66758 56.7851 8.33459 56.5463 7.94506C56.3076 7.54296 56.1882 7.07804 56.1882 6.55029C56.1882 5.90945 56.3578 5.36285 56.6971 4.91049C57.0489 4.45813 57.5013 4.12515 58.0542 3.91153C58.6196 3.68536 59.2102 3.57227 59.8259 3.57227C60.6678 3.57227 61.428 3.71677 62.1066 4.00578C62.295 4.08117 62.3893 4.19426 62.3893 4.34504L62.4835 6.70108C62.4835 6.75134 62.4521 6.78275 62.3893 6.79532C62.3265 6.80788 62.2888 6.78903 62.2762 6.73877C62.138 6.06024 61.8427 5.41939 61.3903 4.81625C60.938 4.20054 60.2971 3.89269 59.4678 3.89269C58.8395 3.89269 58.3495 4.08117 57.9976 4.45813C57.6584 4.8351 57.4887 5.31259 57.4887 5.8906Z" fill="#494040"/>
<path d="M52.192 14.0328C52.192 14.4098 52.2297 14.6925 52.3051 14.881C52.3805 15.0569 52.5187 15.1763 52.7197 15.2391C52.9334 15.3019 53.2663 15.3333 53.7187 15.3333C53.7438 15.3333 53.7564 15.371 53.7564 15.4464C53.7564 15.5218 53.7438 15.5595 53.7187 15.5595C53.3166 15.5595 53.0025 15.5532 52.7763 15.5407L51.4192 15.5218L50.0998 15.5407C49.8611 15.5532 49.5344 15.5595 49.1197 15.5595C49.0946 15.5595 49.082 15.5218 49.082 15.4464C49.082 15.371 49.0946 15.3333 49.1197 15.3333C49.5721 15.3333 49.9051 15.3019 50.1187 15.2391C50.3323 15.1763 50.4768 15.0569 50.5522 14.881C50.6276 14.6925 50.6653 14.4098 50.6653 14.0328V5.30607C50.6653 4.92911 50.6276 4.65267 50.5522 4.47675C50.4768 4.30083 50.3323 4.18146 50.1187 4.11863C49.9051 4.04324 49.5721 4.00554 49.1197 4.00554C49.0946 4.00554 49.082 3.96785 49.082 3.89245C49.082 3.81706 49.0946 3.77937 49.1197 3.77937L50.0998 3.79821C50.6527 3.82334 51.0925 3.83591 51.4192 3.83591C51.7836 3.83591 52.2423 3.82334 52.7951 3.79821L53.7187 3.77937C53.7438 3.77937 53.7564 3.81706 53.7564 3.89245C53.7564 3.96785 53.7438 4.00554 53.7187 4.00554C53.2789 4.00554 52.9522 4.04324 52.7386 4.11863C52.525 4.19403 52.3805 4.32596 52.3051 4.51445C52.2297 4.69036 52.192 4.9668 52.192 5.34377V14.0328ZM49.5721 2.78041C49.5218 2.78041 49.4904 2.75528 49.4778 2.70501C49.4653 2.64219 49.4778 2.59821 49.5155 2.57308C49.9679 2.32177 50.615 1.9071 51.4569 1.32909C51.859 1.05265 52.1606 0.851603 52.3616 0.725947C52.4245 0.688251 52.5941 0.713383 52.8705 0.801341C53.1595 0.8893 53.4108 0.989824 53.6245 1.10291C53.8506 1.216 53.9072 1.28511 53.7941 1.31024C53.015 1.49873 52.2988 1.71234 51.6454 1.95108C51.0045 2.17726 50.326 2.44742 49.6098 2.76156L49.5721 2.78041Z" fill="#494040"/>
<path d="M48.2534 15.3341C48.3036 15.3341 48.3287 15.3718 48.3287 15.4472C48.3287 15.5226 48.3036 15.5603 48.2534 15.5603C48.0146 15.5603 47.6314 15.5477 47.1036 15.5226C46.601 15.4975 46.2303 15.4849 45.9916 15.4849C45.7026 15.4849 45.3444 15.4975 44.9172 15.5226C44.49 15.5477 44.1696 15.5603 43.956 15.5603C43.9057 15.5603 43.8806 15.5226 43.8806 15.4472C43.8806 15.3718 43.9057 15.3341 43.956 15.3341C44.3832 15.3341 44.691 15.2964 44.8795 15.221C45.068 15.1331 45.1622 14.9823 45.1622 14.7687C45.1622 14.5551 45.068 14.2598 44.8795 13.8828L42.7685 9.51001H39.3004L37.7549 13.0723C37.579 13.487 37.491 13.8325 37.491 14.109C37.491 14.9257 38.1004 15.3341 39.3193 15.3341C39.3821 15.3341 39.4135 15.3718 39.4135 15.4472C39.4135 15.5226 39.3821 15.5603 39.3193 15.5603C39.0931 15.5603 38.7664 15.5477 38.3392 15.5226C37.8617 15.4975 37.447 15.4849 37.0952 15.4849C36.7685 15.4849 36.379 15.4975 35.9266 15.5226C35.5245 15.5477 35.1978 15.5603 34.9465 15.5603C34.8962 15.5603 34.8711 15.5226 34.8711 15.4472C34.8711 15.3718 34.8962 15.3341 34.9465 15.3341C35.2983 15.3341 35.5936 15.265 35.8324 15.1268C36.0837 14.9886 36.3224 14.7498 36.5486 14.4106C36.7748 14.0713 37.0324 13.5687 37.3214 12.9027L41.336 3.64821C41.3486 3.61051 41.3926 3.59166 41.468 3.59166C41.5434 3.57909 41.5874 3.59794 41.5999 3.64821L46.1423 12.9781C46.5696 13.8954 46.934 14.5174 47.2355 14.8441C47.5371 15.1708 47.8764 15.3341 48.2534 15.3341ZM39.4701 9.0765H42.5612L40.9402 5.68382L39.4701 9.0765Z" fill="#494040"/>
<path d="M35.1608 15.3332C35.186 15.3332 35.1985 15.3709 35.1985 15.4463C35.1985 15.5217 35.186 15.5594 35.1608 15.5594H32.4278C32.1263 15.5594 31.5545 15.0253 30.7127 13.9573C29.8833 12.8766 28.8907 11.4002 27.7346 9.52792C27.4456 9.59075 27.1692 9.62216 26.9053 9.62216C26.6666 9.62216 26.3587 9.60959 25.9817 9.58446V14.0326C25.9817 14.4096 26.0194 14.6923 26.0948 14.8808C26.1702 15.0567 26.3084 15.1761 26.5095 15.2389C26.7231 15.3018 27.0561 15.3332 27.5084 15.3332C27.5461 15.3332 27.565 15.3709 27.565 15.4463C27.565 15.5217 27.5461 15.5594 27.5084 15.5594C27.1189 15.5594 26.8111 15.5531 26.5849 15.5405L25.2278 15.5217L23.9084 15.5405C23.6697 15.5531 23.3493 15.5594 22.9472 15.5594C22.9095 15.5594 22.8906 15.5217 22.8906 15.4463C22.8906 15.3709 22.9095 15.3332 22.9472 15.3332C23.3995 15.3332 23.7325 15.3018 23.9461 15.2389C24.1597 15.1761 24.3042 15.0567 24.3796 14.8808C24.455 14.6923 24.4927 14.4096 24.4927 14.0326V5.30591C24.4927 4.92894 24.455 4.6525 24.3796 4.47659C24.3042 4.30067 24.1597 4.1813 23.9461 4.11847C23.7451 4.04308 23.4184 4.00538 22.966 4.00538C22.9409 4.00538 22.9283 3.96768 22.9283 3.89229C22.9283 3.8169 22.9409 3.7792 22.966 3.7792L23.9084 3.79805C24.4613 3.82318 24.9011 3.83575 25.2278 3.83575C25.454 3.83575 25.6676 3.82946 25.8686 3.8169C26.0697 3.80433 26.2456 3.79177 26.3964 3.7792C26.8111 3.7415 27.2006 3.72266 27.565 3.72266C28.6331 3.72266 29.4561 3.93627 30.0341 4.3635C30.6121 4.77816 30.9011 5.35617 30.9011 6.09754C30.9011 6.68811 30.7252 7.24728 30.3734 7.77503C30.0215 8.30278 29.5629 8.73001 28.9975 9.05671C30.053 10.6525 30.9325 11.9028 31.6362 12.8075C32.3524 13.6997 32.987 14.3468 33.5399 14.7489C34.0928 15.1384 34.6331 15.3332 35.1608 15.3332ZM25.9817 9.09441C26.4592 9.14467 26.8299 9.1698 27.0938 9.1698C27.898 9.1698 28.4697 8.99388 28.809 8.64205C29.1608 8.27765 29.3367 7.65566 29.3367 6.77607C29.3367 5.7834 29.1482 5.07973 28.7713 4.66507C28.3943 4.25041 27.8728 4.04308 27.2069 4.04308C26.8802 4.04308 26.6289 4.07449 26.4529 4.13732C26.2896 4.20015 26.1702 4.3258 26.0948 4.51428C26.0194 4.6902 25.9817 4.96664 25.9817 5.34361V9.09441Z" fill="#494040"/>
<path d="M22.1166 15.3341C22.1669 15.3341 22.192 15.3718 22.192 15.4472C22.192 15.5226 22.1669 15.5603 22.1166 15.5603C21.8779 15.5603 21.4946 15.5477 20.9669 15.5226C20.4643 15.4975 20.0936 15.4849 19.8548 15.4849C19.5658 15.4849 19.2077 15.4975 18.7805 15.5226C18.3533 15.5477 18.0328 15.5603 17.8192 15.5603C17.769 15.5603 17.7438 15.5226 17.7438 15.4472C17.7438 15.3718 17.769 15.3341 17.8192 15.3341C18.2465 15.3341 18.5543 15.2964 18.7428 15.221C18.9313 15.1331 19.0255 14.9823 19.0255 14.7687C19.0255 14.5551 18.9313 14.2598 18.7428 13.8828L16.6318 9.51001H13.1637L11.6182 13.0723C11.4422 13.487 11.3543 13.8325 11.3543 14.109C11.3543 14.9257 11.9637 15.3341 13.1826 15.3341C13.2454 15.3341 13.2768 15.3718 13.2768 15.4472C13.2768 15.5226 13.2454 15.5603 13.1826 15.5603C12.9564 15.5603 12.6297 15.5477 12.2025 15.5226C11.725 15.4975 11.3103 15.4849 10.9585 15.4849C10.6318 15.4849 10.2422 15.4975 9.78988 15.5226C9.38778 15.5477 9.06108 15.5603 8.80977 15.5603C8.75951 15.5603 8.73438 15.5226 8.73438 15.4472C8.73438 15.3718 8.75951 15.3341 8.80977 15.3341C9.1616 15.3341 9.45689 15.265 9.69564 15.1268C9.94695 14.9886 10.1857 14.7498 10.4119 14.4106C10.638 14.0713 10.8956 13.5687 11.1846 12.9027L15.1993 3.64821C15.2119 3.61051 15.2559 3.59166 15.3313 3.59166C15.4067 3.57909 15.4506 3.59794 15.4632 3.64821L20.0056 12.9781C20.4329 13.8954 20.7973 14.5174 21.0988 14.8441C21.4004 15.1708 21.7397 15.3341 22.1166 15.3341ZM13.3333 9.0765H16.4245L14.8035 5.68382L13.3333 9.0765Z" fill="#494040"/>
<path d="M3.22852 13.9573C3.22852 14.3594 3.27878 14.6546 3.3793 14.8431C3.47983 15.019 3.66831 15.1447 3.94475 15.2201C4.23376 15.2955 4.6924 15.3332 5.32067 15.3332C5.35837 15.3332 5.37722 15.3709 5.37722 15.4463C5.37722 15.5217 5.35837 15.5594 5.32067 15.5594C4.80549 15.5594 4.40339 15.5531 4.11438 15.5405L2.47459 15.5217L1.17406 15.5405C0.935311 15.5531 0.608608 15.5594 0.193946 15.5594C0.168815 15.5594 0.15625 15.5217 0.15625 15.4463C0.15625 15.3709 0.168815 15.3332 0.193946 15.3332C0.646305 15.3332 0.973008 15.3018 1.17406 15.2389C1.38767 15.1761 1.53217 15.0567 1.60757 14.8808C1.68296 14.6923 1.72066 14.4096 1.72066 14.0326V5.30591C1.72066 4.92894 1.68296 4.6525 1.60757 4.47659C1.53217 4.30067 1.38767 4.1813 1.17406 4.11847C0.973008 4.04308 0.646305 4.00538 0.193946 4.00538C0.168815 4.00538 0.15625 3.96768 0.15625 3.89229C0.15625 3.8169 0.168815 3.7792 0.193946 3.7792L1.17406 3.79805C1.70181 3.82318 2.12903 3.83575 2.45574 3.83575C2.75731 3.83575 3.11543 3.8169 3.53009 3.7792C3.68087 3.7792 3.91334 3.77292 4.22747 3.76035C4.55418 3.73522 4.8369 3.72266 5.07564 3.72266C6.2568 3.72266 7.2055 3.98653 7.92173 4.51428C8.63797 5.02947 8.99608 5.81481 8.99608 6.87031C8.99608 7.68707 8.78875 8.37817 8.37409 8.94362C7.97199 9.50907 7.45053 9.93001 6.80968 10.2065C6.18141 10.4829 5.528 10.6211 4.84947 10.6211C4.48507 10.6211 4.18349 10.5897 3.94475 10.5269C3.90705 10.5269 3.88821 10.4955 3.88821 10.4326C3.88821 10.3949 3.89449 10.3572 3.90705 10.3195C3.93218 10.2818 3.95732 10.2693 3.98245 10.2818C4.18349 10.3321 4.40967 10.3572 4.66098 10.3572C5.40235 10.3572 6.03062 10.0871 6.54581 9.54677C7.06099 9.00645 7.31859 8.22739 7.31859 7.20958C7.31859 6.21691 7.06728 5.44413 6.56466 4.89125C6.06204 4.3258 5.39607 4.04308 4.56674 4.04308C4.18978 4.04308 3.90705 4.07449 3.71857 4.13732C3.54265 4.18758 3.417 4.30695 3.34161 4.49543C3.26621 4.67135 3.22852 4.95408 3.22852 5.34361V13.9573Z" fill="#494040"/>
</svg>
