<svg width="24" height="25" viewBox="0 0 24 25" fill="none" xmlns="http://www.w3.org/2000/svg">
<g id="Frame" clip-path="url(#clip0_2532_382)">
<g id="Group">
<path id="Vector" d="M2.00401 22.8633L3.35601 17.8953C2.46515 16.3681 1.99711 14.6313 2.00001 12.8633C2.00001 7.34028 6.47701 2.86328 12 2.86328C17.523 2.86328 22 7.34028 22 12.8633C22 18.3863 17.523 22.8633 12 22.8633C10.2328 22.8661 8.49667 22.3985 6.97001 21.5083L2.00401 22.8633ZM8.39101 8.17128C8.26188 8.1793 8.13569 8.21331 8.02001 8.27128C7.91153 8.33271 7.81251 8.40951 7.72601 8.49928C7.60601 8.61228 7.53801 8.71028 7.46501 8.80528C7.09542 9.28628 6.89662 9.8767 6.90001 10.4833C6.90201 10.9733 7.03001 11.4503 7.23001 11.8963C7.63901 12.7983 8.31201 13.7533 9.20101 14.6383C9.41501 14.8513 9.62401 15.0653 9.84901 15.2643C10.9524 16.2357 12.2673 16.9363 13.689 17.3103L14.258 17.3973C14.443 17.4073 14.628 17.3933 14.814 17.3843C15.1053 17.3692 15.3896 17.2904 15.647 17.1533C15.813 17.0653 15.891 17.0213 16.03 16.9333C16.03 16.9333 16.073 16.9053 16.155 16.8433C16.29 16.7433 16.373 16.6723 16.485 16.5553C16.568 16.4693 16.64 16.3683 16.695 16.2533C16.773 16.0903 16.851 15.7793 16.883 15.5203C16.907 15.3223 16.9 15.2143 16.897 15.1473C16.893 15.0403 16.804 14.9293 16.707 14.8823L16.125 14.6213C16.125 14.6213 15.255 14.2423 14.724 14.0003C14.668 13.9759 14.608 13.962 14.547 13.9593C14.4786 13.9523 14.4095 13.96 14.3443 13.9819C14.2791 14.0038 14.2193 14.0394 14.169 14.0863V14.0843C14.164 14.0843 14.097 14.1413 13.374 15.0173C13.3325 15.073 13.2754 15.1152 13.2098 15.1383C13.1443 15.1615 13.0733 15.1646 13.006 15.1473C12.9409 15.1299 12.877 15.1078 12.815 15.0813C12.691 15.0293 12.648 15.0093 12.563 14.9723L12.558 14.9703C11.9859 14.7205 11.4562 14.3831 10.988 13.9703C10.862 13.8603 10.745 13.7403 10.625 13.6243C10.2316 13.2475 9.88873 12.8213 9.60501 12.3563L9.54601 12.2613C9.50364 12.1974 9.46937 12.1286 9.44401 12.0563C9.40601 11.9093 9.50501 11.7913 9.50501 11.7913C9.50501 11.7913 9.74801 11.5253 9.86101 11.3813C9.9551 11.2616 10.0429 11.1371 10.124 11.0083C10.242 10.8183 10.279 10.6233 10.217 10.4723C9.93701 9.78828 9.64701 9.10728 9.34901 8.43128C9.29001 8.29728 9.11501 8.20128 8.95601 8.18228C8.90201 8.17628 8.84801 8.17028 8.79401 8.16628C8.65972 8.15961 8.52515 8.16195 8.39101 8.17128Z" fill="#494040"/>
</g>
</g>
<defs>
<clipPath id="clip0_2532_382">
<rect width="24" height="24" fill="white" transform="translate(0 0.863281)"/>
</clipPath>
</defs>
</svg>
